<?xml version="1.0" encoding="UTF-8" standalone="no"?>
<!DOCTYPE svg PUBLIC "-//W3C//DTD SVG 1.1//EN" "http://www.w3.org/Graphics/SVG/1.1/DTD/svg11.dtd">
<svg width="100%" height="100%" viewBox="0 0 230 230" version="1.1" xmlns="http://www.w3.org/2000/svg" xmlns:xlink="http://www.w3.org/1999/xlink" xml:space="preserve" xmlns:serif="http://www.serif.com/" style="fill-rule:evenodd;clip-rule:evenodd;stroke-linecap:round;stroke-linejoin:round;stroke-miterlimit:2;">
    <g id="椭圆-61" serif:id="椭圆 61" transform="matrix(4.13729,0,0,4.13729,-538.692,-240.807)">
        <path d="M159,106C159,105.448 158.552,105 158,105C157.448,105 157,105.448 157,106L157,112C157,112.552 157.448,113 158,113C158.552,113 159,112.552 159,112L159,106ZM140.674,104.708L144.678,100.734C145.069,100.344 145.069,99.711 144.678,99.32C144.288,98.93 143.655,98.93 143.264,99.32L139.26,103.293C138.869,103.684 138.869,104.317 139.26,104.708C139.65,105.098 140.283,105.098 140.674,104.708ZM175.326,104.708L171.322,100.734C170.931,100.344 170.931,99.711 171.322,99.32C171.712,98.93 172.345,98.93 172.736,99.32L176.74,103.293C177.131,103.684 177.131,104.317 176.74,104.708C176.35,105.098 175.716,105.098 175.326,104.708ZM158,71C166.279,71 173,77.721 173,86C173,94.279 166.279,101 158,101C149.721,101 143,94.279 143,86C143,77.721 149.721,71 158,71ZM158,73C165.175,73 171,78.825 171,86C171,93.175 165.175,99 158,99C150.825,99 145,93.175 145,86C145,78.825 150.825,73 158,73ZM132,85C131.448,85 131,85.448 131,86C131,86.552 131.448,87 132,87L138,87C138.552,87 139,86.552 139,86C139,85.448 138.552,85 138,85L132,85ZM178,85C177.448,85 177,85.448 177,86C177,86.552 177.448,87 178,87L184,87C184.552,87 185,86.552 185,86C185,85.448 184.552,85 184,85L178,85ZM140.674,67.289L144.678,71.263C145.069,71.653 145.069,72.286 144.678,72.677C144.288,73.067 143.655,73.067 143.264,72.677L139.26,68.704C138.869,68.313 138.869,67.68 139.26,67.289C139.65,66.899 140.283,66.899 140.674,67.289ZM175.326,67.289L171.322,71.263C170.931,71.653 170.931,72.286 171.322,72.677C171.712,73.067 172.345,73.067 172.736,72.677L176.74,68.704C177.131,68.313 177.131,67.68 176.74,67.289C176.35,66.899 175.716,66.899 175.326,67.289ZM159,60C159,59.448 158.552,59 158,59C157.448,59 157,59.448 157,60L157,66C157,66.552 157.448,67 158,67C158.552,67 159,66.552 159,66L159,60Z" style="stroke:black;stroke-width:0.24px;"/>
    </g>
</svg>
