<svg width="100" height="100" viewBox="0 0 100 100" fill="none" xmlns="http://www.w3.org/2000/svg">
<rect opacity="0.0229128" x="0.5" y="0.5" width="99" height="99" stroke="#2B2B2B"/>
<path fill-rule="evenodd" clip-rule="evenodd" d="M74.9506 74.8615L64.0325 64.7978C63.355 64.174 63.321 63.1179 63.9597 62.4529C64.5985 61.7895 65.677 61.7578 66.3562 62.3832L77.2743 72.4453C77.9518 73.0707 77.9842 74.1252 77.3454 74.7902C76.7083 75.4552 75.6298 75.4869 74.9506 74.8615Z" fill="black" fill-opacity="0.8"/>
<path fill-rule="evenodd" clip-rule="evenodd" d="M33.238 36.6652L22.3198 26.6031C21.6407 25.9777 21.6083 24.9232 22.2471 24.2582C22.8858 23.5932 23.9627 23.5615 24.6419 24.1869L35.56 34.2506C36.2391 34.876 36.2715 35.9305 35.6328 36.5955C34.994 37.2589 33.9155 37.2906 33.238 36.6652Z" fill="black" fill-opacity="0.8"/>
<path fill-rule="evenodd" clip-rule="evenodd" d="M24.5109 74.7364L34.5316 63.8146C35.1541 63.1369 36.2311 63.0799 36.9248 63.6895C37.6185 64.2991 37.6751 65.3536 37.0525 66.0328L27.0318 76.9547C26.4093 77.6323 25.3323 77.6893 24.6402 77.0797C23.9465 76.4702 23.8883 75.4157 24.5109 74.7364Z" fill="black" fill-opacity="0.8"/>
<path fill-rule="evenodd" clip-rule="evenodd" d="M62.54 33.0156L72.5607 22.0938C73.1832 21.4161 74.2601 21.3591 74.9539 21.9687C75.6459 22.5783 75.7041 23.6328 75.0816 24.312L65.0609 35.2338C64.4384 35.9115 63.3614 35.9685 62.6677 35.3589C61.9756 34.7493 61.9174 33.6948 62.54 33.0156Z" fill="black" fill-opacity="0.8"/>
<path fill-rule="evenodd" clip-rule="evenodd" d="M48.8277 84.9568L48.6563 70.2762C48.6466 69.3642 49.4001 68.6089 50.3315 68.5994C51.2629 68.5883 52.0342 69.3262 52.0456 70.2382L52.217 84.9188C52.2267 85.8324 51.4731 86.5861 50.5417 86.5972C49.6103 86.6083 48.839 85.8704 48.8277 84.9568Z" fill="black" fill-opacity="0.8"/>
<path fill-rule="evenodd" clip-rule="evenodd" d="M47.99 29.043L47.8186 14.3623C47.8073 13.4487 48.5608 12.6951 49.4922 12.684C50.4236 12.6729 51.1949 13.4107 51.2063 14.3243L51.3777 29.005C51.389 29.917 50.6338 30.6722 49.7024 30.6817C48.771 30.6928 47.9997 29.955 47.99 29.043Z" fill="black" fill-opacity="0.8"/>
<path fill-rule="evenodd" clip-rule="evenodd" d="M13.9695 47.9591L28.9642 48.0066C29.8956 48.0098 30.6556 48.7587 30.6523 49.6707C30.6507 50.5827 29.8859 51.3268 28.9528 51.3237L13.9598 51.2778C13.0268 51.2746 12.2668 50.5257 12.27 49.6137C12.2733 48.7001 13.0381 47.9559 13.9695 47.9591Z" fill="black" fill-opacity="0.8"/>
<path fill-rule="evenodd" clip-rule="evenodd" d="M71.0811 47.9575L86.0757 48.0034C87.0071 48.0066 87.7671 48.7555 87.7639 49.6675C87.7607 50.5811 86.9958 51.3252 86.0644 51.3221L71.0698 51.2746C70.1384 51.2714 69.3784 50.5225 69.3816 49.6105C69.3848 48.6985 70.1497 47.9543 71.0811 47.9575Z" fill="black" fill-opacity="0.8"/>
<path fill-rule="evenodd" clip-rule="evenodd" d="M49.5974 34.2585C40.9366 34.2585 33.8896 41.1587 33.8896 49.639C33.8896 58.1209 40.9366 65.0211 49.5974 65.0211C58.2598 65.0211 65.3068 58.1209 65.3068 49.639C65.3068 41.1587 58.2598 34.2585 49.5974 34.2585ZM62.097 49.639C62.097 56.3871 56.4891 61.8781 49.5974 61.8781C42.7056 61.8781 37.0994 56.3871 37.0994 49.639C37.0994 42.8908 42.7056 37.3998 49.5974 37.3998C56.4891 37.3998 62.097 42.8908 62.097 49.639Z" fill="black" fill-opacity="0.8"/>
</svg>
