<svg width="100" height="100" viewBox="0 0 100 100" fill="none" xmlns="http://www.w3.org/2000/svg">
<rect opacity="0.0229128" x="0.5" y="0.5" width="99" height="99" stroke="#2B2B2B"/>
<path fill-rule="evenodd" clip-rule="evenodd" d="M49.0319 80.0265C39.2534 81.0306 30.9804 77.9459 24.1222 71.0882C22.4864 69.4523 21.054 67.6153 19.5596 65.8443C18.8999 65.0602 18.8554 64.4788 19.2592 63.8675C19.6598 63.2641 20.3291 63.1211 21.2861 63.3568C28.0425 65.0162 34.7353 64.9046 41.0943 61.9488C51.3688 57.1716 57.1936 49.0253 58.6324 37.9373C59.4733 31.4489 57.8089 25.4115 54.4275 19.8203C54.321 19.6459 54.216 19.4715 54.1064 19.2986C53.7248 18.6952 53.7137 18.0902 54.1747 17.5355C54.6389 16.9792 55.2621 16.8802 55.9187 17.1285C65.7194 20.8261 73.3756 26.9436 76.9971 36.8939C81.539 49.3726 79.0208 60.6193 69.6604 70.1893C65.0645 74.8895 59.3859 77.8375 52.9506 79.3319C51.6597 79.6321 50.3387 79.7986 49.0319 80.0265ZM24.1174 66.9255C24.712 67.5729 25.2318 68.1653 25.7803 68.7295C29.5035 72.5685 33.8085 75.5118 39.1453 76.6071C48.2688 78.4786 56.6849 76.6353 64.2171 71.2831C75.0019 63.6208 78.5836 50.9063 74.7412 38.9493C72.1293 30.8251 66.5064 25.2701 58.9153 21.5112C58.8502 21.4798 58.7675 21.4813 58.6991 21.4688C63.489 33.0926 62.6592 44.2042 55.0825 54.2943C47.458 64.4489 36.8433 68.2502 24.1174 66.9255Z" fill="black" fill-opacity="0.8"/>
</svg>
