<svg width="100" height="100" viewBox="0 0 100 100" fill="none" xmlns="http://www.w3.org/2000/svg">
<rect opacity="0.0229128" x="0.5" y="0.5" width="99" height="99" stroke="#2B2B2B"/>
<g clip-path="url(#clip0)">
<path fill-rule="evenodd" clip-rule="evenodd" d="M76.829 54.1395C75.8822 54.1395 74.937 54.2414 74.013 54.4437C71.0574 47.519 64.163 42.899 56.7028 42.899C47.393 42.899 39.652 49.5362 38.1105 58.7534C38.0892 58.7534 38.068 58.7534 38.0452 58.7534C31.9581 58.7534 27.0058 63.7658 27.0058 69.9284C27.0058 76.0878 31.9581 81.0988 38.0452 81.0988H76.829C84.1709 81.0988 90.1443 75.0519 90.1443 67.6191C90.1443 60.1864 84.1709 54.1395 76.829 54.1395ZM87.4663 67.6191C87.4663 73.5626 82.6946 78.3986 76.829 78.3986H38.0452C33.4343 78.3986 29.6837 74.5986 29.6837 69.9284C29.6837 65.2551 33.4343 61.4536 38.0452 61.4536C38.3532 61.4536 38.6901 61.4779 39.1043 61.5296L40.4652 61.7L40.6018 60.3248C41.4408 51.9306 48.364 45.6008 56.7028 45.6008C63.5243 45.6008 69.6479 49.9834 71.9404 56.5095L72.3728 57.7417L73.6063 57.3447C74.6548 57.01 75.7381 56.8412 76.829 56.8412C82.6946 56.8412 87.4663 61.6757 87.4663 67.6191Z" fill="#2B2B2B"/>
<path fill-rule="evenodd" clip-rule="evenodd" d="M22.2265 36.8871C22.756 37.4834 23.6754 37.5382 24.2702 37.0088C24.8665 36.4779 24.9211 35.556 24.3916 34.9597L15.8844 25.3531C15.3564 24.7568 14.437 24.702 13.8407 25.2329C13.2459 25.7623 13.1913 26.6842 13.7193 27.282L22.2265 36.8871Z" fill="#2B2B2B"/>
<path fill-rule="evenodd" clip-rule="evenodd" d="M21.2099 60.6443L11.8303 69.3944C11.2477 69.939 11.2143 70.8609 11.756 71.4466C12.2992 72.0307 13.2201 72.0642 13.8028 71.5196L23.1823 62.7694C23.765 62.2263 23.7983 61.303 23.2567 60.7188C22.7135 60.1346 21.7926 60.1012 21.2099 60.6443Z" fill="#2B2B2B"/>
<path fill-rule="evenodd" clip-rule="evenodd" d="M58.8754 27.2744C58.3323 26.6903 57.4113 26.6568 56.8287 27.1999L47.4491 35.95C46.8665 36.4946 46.8331 37.4165 47.3763 38.0022C47.9179 38.5863 48.8389 38.6198 49.4215 38.0752L58.8011 29.3251C59.3837 28.782 59.4171 27.8586 58.8754 27.2744Z" fill="#2B2B2B"/>
<path fill-rule="evenodd" clip-rule="evenodd" d="M36.707 32.9334C37.5006 32.9958 38.2 32.3949 38.2622 31.5993L39.2621 18.7935C39.3243 17.9979 38.725 17.2951 37.9314 17.2328C37.1379 17.1704 36.437 17.7713 36.3748 18.5669L35.3764 31.3726C35.3142 32.1698 35.912 32.8711 36.707 32.9334Z" fill="#2B2B2B"/>
<path fill-rule="evenodd" clip-rule="evenodd" d="M19.013 48.021C19.0858 47.227 18.4971 46.5165 17.7051 46.442L4.94814 45.2524C4.15462 45.1794 3.44607 45.7681 3.37324 46.5637C3.2989 47.3593 3.88759 48.0697 4.67959 48.1427L17.4366 49.3324C18.2301 49.4069 18.9386 48.8167 19.013 48.021Z" fill="#2B2B2B"/>
<path fill-rule="evenodd" clip-rule="evenodd" d="M24.5008 48.488C25.0273 42.6069 30.2269 38.2517 36.0926 38.7795C39.0557 39.0473 41.6275 40.5107 43.3814 42.6511C44.0201 42.0213 44.7166 41.4219 45.4721 40.8712C43.2676 38.1999 40.045 36.3744 36.3368 36.0413C28.9661 35.378 22.4313 40.8514 21.7698 48.2416C21.3419 53.0183 23.4782 57.4329 27.027 60.1453C27.4276 59.4546 27.9677 58.7001 28.6854 57.9608C25.8618 55.8021 24.161 52.2881 24.5008 48.488Z" fill="#2B2B2B"/>
</g>
<defs>
<clipPath id="clip0">
<rect width="88" height="64.4651" fill="white" transform="translate(3 17)"/>
</clipPath>
</defs>
</svg>
