<svg width="100" height="100" viewBox="0 0 100 100" fill="none" xmlns="http://www.w3.org/2000/svg">
<rect opacity="0.0229128" x="0.5" y="0.5" width="99" height="99" stroke="#2B2B2B"/>
<path fill-rule="evenodd" clip-rule="evenodd" d="M31.7409 56.9285H9.32578C5.5682 56.9285 2.51214 53.5803 2.51214 49.4633C2.51214 45.3447 5.5682 41.9949 9.32578 41.9949C9.57729 41.9949 9.85153 42.0163 10.1879 42.0623L11.297 42.2134L11.4091 41.001C12.094 33.6032 17.7349 28.0241 24.5303 28.0241C30.0894 28.0241 35.0788 31.8881 36.9455 37.6381L37.2985 38.724L38.3046 38.3741C39.1576 38.08 40.0409 37.9305 40.9303 37.9305C41.1061 37.9305 41.2773 37.9469 41.4515 37.9584C41.5364 37.1912 41.6061 36.4059 41.644 35.5894C41.4076 35.573 41.1712 35.55 40.9303 35.55C40.1591 35.55 39.3879 35.6403 38.6349 35.8178C36.2273 29.7162 30.6091 25.6452 24.5303 25.6452C16.944 25.6452 10.6349 31.4938 9.37881 39.6161C9.36214 39.6161 9.34396 39.6161 9.32578 39.6161C4.36517 39.6161 0.330322 44.0337 0.330322 49.4633C0.330322 54.8913 4.36517 59.309 9.32578 59.309H28.2667L28.2379 59.3024C28.2379 59.3024 29.7424 58.5878 31.7409 56.9285Z" fill="#2B2B2B"/>
<path fill-rule="evenodd" clip-rule="evenodd" d="M34.0091 79.0726C31.5061 79.1859 28.9455 78.9921 26.3167 78.4006C21.2303 77.2556 17.1258 74.1801 13.5788 70.1666C13.0561 69.5752 12.5606 68.9559 11.994 68.2806C24.1227 69.6639 34.2394 65.6899 41.5061 55.0754C48.7273 44.5266 49.5167 32.9099 44.953 20.7577C45.0167 20.7709 45.0955 20.7676 45.1576 20.8021C52.2015 24.625 57.4424 30.2501 60.0137 38.379C60.8409 38.1161 61.7409 37.8878 62.6515 37.7481C62.5621 37.459 62.4879 37.1731 62.3909 36.8824C58.9394 26.4798 51.644 20.0841 42.3031 16.2185C41.6773 15.9589 41.0818 16.0624 40.6409 16.644C40.2015 17.2239 40.2121 17.8564 40.5743 18.4889C40.6788 18.668 40.7803 18.8504 40.8803 19.0344C44.1031 24.878 45.6894 31.1915 44.8879 37.9732C43.5167 49.5669 37.9652 58.0834 28.1727 63.0761C22.1121 66.1663 15.7334 66.2829 9.29396 64.5481C8.38184 64.3033 7.74396 64.4511 7.36214 65.0836C6.97729 65.7211 7.01972 66.3289 7.65002 67.1487C9.07275 69.0002 10.4379 70.9207 11.997 72.6326C18.5334 79.802 26.4197 83.0253 35.7379 81.9755C35.8924 81.9459 36.0485 81.9196 36.2046 81.8917C35.4258 81.1146 34.6637 80.1897 34.0091 79.0726Z" fill="#2B2B2B"/>
<path fill-rule="evenodd" clip-rule="evenodd" d="M85.7893 54.4494C84.8439 54.4494 83.8984 54.5595 82.9757 54.778C80.0257 47.2997 73.1409 42.3104 65.6909 42.3104C56.3939 42.3104 48.6636 49.4782 47.1242 59.4339C47.103 59.4322 47.0802 59.4322 47.059 59.4322C40.9802 59.4322 36.0348 64.8471 36.0348 71.5007C36.0348 78.1526 40.9802 83.5658 47.059 83.5658H85.7893C93.1212 83.5658 99.0863 77.0338 99.0863 69.0068C99.0863 60.9814 93.1212 54.4494 85.7893 54.4494ZM96.4121 69.0068C96.4121 75.4271 91.6469 80.6481 85.7893 80.6481H47.059C42.4545 80.6481 38.709 76.5442 38.709 71.5007C38.709 66.4538 42.4545 62.3483 47.059 62.3483C47.3666 62.3483 47.7015 62.3746 48.1151 62.4304L49.4742 62.6144L49.6105 61.1293C50.4499 52.064 57.3636 45.2281 65.6908 45.2281C72.503 45.2281 78.6181 49.9628 80.906 57.0106L81.3393 58.3397L82.5712 57.9109C83.6166 57.5495 84.6999 57.3671 85.7893 57.3671C91.6469 57.3671 96.4121 62.5882 96.4121 69.0068Z" fill="#2B2B2B"/>
</svg>
