<svg width="100" height="100" viewBox="0 0 100 100" fill="none" xmlns="http://www.w3.org/2000/svg">
<rect opacity="0.0229128" x="0.5" y="0.5" width="98.0099" height="99" stroke="#2B2B2B"/>
<path fill-rule="evenodd" clip-rule="evenodd" d="M84.2155 53.447C83.1609 53.447 82.108 53.5608 81.0788 53.7866C77.7867 46.0587 70.1074 40.9029 61.7977 40.9029C51.4278 40.9029 42.8055 48.3099 41.0884 58.5961C41.0648 58.5961 41.0411 58.5961 41.0158 58.5961C34.2355 58.5961 28.7194 64.1899 28.7194 71.0672C28.7194 77.9411 34.2355 83.5332 41.0158 83.5332H84.2155C92.3934 83.5332 99.0469 76.785 99.0469 68.4901C99.0469 60.1953 92.3934 53.447 84.2155 53.447ZM96.064 68.4901C96.064 75.1229 90.749 80.5198 84.2155 80.5198H41.0158C35.8799 80.5198 31.7022 76.279 31.7022 71.0672C31.7022 65.8519 35.8799 61.6094 41.0158 61.6094C41.3588 61.6094 41.734 61.6366 42.1954 61.6943L43.7113 61.8845L43.8634 60.3498C44.798 50.982 52.5094 43.918 61.7977 43.918C69.3959 43.918 76.2167 48.809 78.7703 56.092L79.2519 57.4671L80.6259 57.024C81.7937 56.6505 83.0004 56.4621 84.2155 56.4621C90.749 56.4621 96.064 61.8573 96.064 68.4901Z" fill="#2B2B2B"/>
<path fill-rule="evenodd" clip-rule="evenodd" d="M23.3958 34.1937C23.9856 34.8592 25.0098 34.9203 25.6722 34.3295C26.3364 33.737 26.3972 32.7082 25.8074 32.0427L16.3316 21.3219C15.7435 20.6564 14.7194 20.5953 14.0552 21.1878C13.3927 21.7786 13.3319 22.8074 13.92 23.4746L23.3958 34.1937Z" fill="#2B2B2B"/>
<path fill-rule="evenodd" clip-rule="evenodd" d="M22.2636 60.7063L11.816 70.4713C11.1671 71.0791 11.1299 72.1079 11.7332 72.7615C12.3383 73.4134 13.3641 73.4507 14.013 72.843L24.4606 63.0779C25.1096 62.4719 25.1467 61.4414 24.5434 60.7895C23.9384 60.1376 22.9126 60.1002 22.2636 60.7063Z" fill="#2B2B2B"/>
<path fill-rule="evenodd" clip-rule="evenodd" d="M64.2177 23.4661C63.6127 22.8142 62.5869 22.7768 61.9379 23.3829L51.4904 33.1479C50.8414 33.7557 50.8042 34.7845 51.4092 35.4381C52.0126 36.09 53.0384 36.1273 53.6874 35.5196L64.1349 25.7546C64.7839 25.1485 64.8211 24.118 64.2177 23.4661Z" fill="#2B2B2B"/>
<path fill-rule="evenodd" clip-rule="evenodd" d="M39.5252 29.7814C40.409 29.851 41.1881 29.1805 41.2574 28.2926L42.3711 14.0016C42.4404 13.1137 41.7729 12.3293 40.889 12.2597C40.0051 12.1901 39.2243 12.8607 39.1551 13.7486L38.043 28.0396C37.9737 28.9292 38.6396 29.7118 39.5252 29.7814Z" fill="#2B2B2B"/>
<path fill-rule="evenodd" clip-rule="evenodd" d="M19.8165 46.619C19.8976 45.7328 19.2419 44.94 18.3597 44.8568L4.15019 43.5292C3.26632 43.4477 2.47709 44.1047 2.39597 44.9926C2.31316 45.8805 2.96888 46.6733 3.85106 46.7548L18.0606 48.0824C18.9444 48.1655 19.7336 47.5069 19.8165 46.619Z" fill="#2B2B2B"/>
<path fill-rule="evenodd" clip-rule="evenodd" d="M25.9292 47.1402C26.5156 40.577 32.3072 35.7165 38.8408 36.3056C42.1413 36.6044 45.0059 38.2376 46.9595 40.6262C47.671 39.9233 48.4467 39.2545 49.2883 38.6399C46.8328 35.6588 43.2432 33.6216 39.1128 33.2498C30.9028 32.5096 23.624 38.6178 22.8872 46.8651C22.4106 52.1958 24.7901 57.1225 28.743 60.1494C29.1892 59.3787 29.7908 58.5367 30.5902 57.7116C27.4451 55.3026 25.5506 51.381 25.9292 47.1402Z" fill="#2B2B2B"/>
</svg>
