<svg width="100" height="100" viewBox="0 0 100 100" fill="none" xmlns="http://www.w3.org/2000/svg">
<g clip-path="url(#clip0)">
<rect opacity="0.0229128" x="0.5" y="0.5" width="97.0392" height="99" stroke="#2B2B2B"/>
</g>
<path fill-rule="evenodd" clip-rule="evenodd" d="M31.1149 77.0895C28.5026 77.2012 25.8302 77.0117 23.0851 76.4273C17.7784 75.2988 13.4947 72.2679 9.79291 68.3126C9.24736 67.7297 8.72871 67.121 8.13731 66.4539C20.7954 67.8188 31.3552 63.9007 38.9374 53.44C46.4754 43.0441 47.2992 31.5958 42.5348 19.6197C42.6028 19.6327 42.6851 19.6311 42.7499 19.6635C50.0997 23.4326 55.5709 28.9746 58.2543 36.9856C59.1177 36.7282 60.057 36.5015 61.0073 36.3655C60.914 36.0806 60.835 35.7973 60.7353 35.5123C57.1332 25.2589 49.5193 18.9575 39.7708 15.1463C39.1177 14.8921 38.4963 14.9925 38.0361 15.5673C37.576 16.1372 37.5886 16.7621 37.9665 17.3838C38.0756 17.5619 38.1816 17.7416 38.2859 17.9214C41.6493 23.6803 43.3049 29.9023 42.4684 36.5857C41.0374 48.0114 35.2436 56.4045 25.0238 61.3248C18.6987 64.3702 12.0415 64.4868 5.32105 62.7771C4.36912 62.5342 3.70341 62.6815 3.30492 63.3033C2.90328 63.9315 2.94755 64.5321 3.60537 65.3384C5.09019 67.1647 6.51492 69.0574 8.14205 70.7428C14.9637 77.8083 23.1942 80.9865 32.9191 79.9503C33.0804 79.9212 33.2433 79.8969 33.4061 79.8694C32.5933 79.1019 31.798 78.192 31.1149 77.0895Z" fill="#2B2B2B"/>
<path fill-rule="evenodd" clip-rule="evenodd" d="M85.155 52.8248C84.1667 52.8248 83.1816 52.9333 82.2186 53.1486C79.1398 45.7771 71.9545 40.8616 64.1794 40.8616C54.4766 40.8616 46.409 47.9255 44.8024 57.7353C44.7802 57.7353 44.7565 57.7353 44.7344 57.7353C38.3903 57.7353 33.229 63.0701 33.229 69.6273C33.229 76.1844 38.3903 81.5175 44.7344 81.5175H85.155C92.8068 81.5175 99.0307 75.0818 99.0307 67.1712C99.0307 59.2605 92.8068 52.8248 85.155 52.8248ZM96.2398 67.1712C96.2398 73.4968 91.2682 78.6437 85.155 78.6437H44.7344C39.9289 78.6437 36.02 74.5993 36.02 69.6273C36.02 64.6535 39.9289 60.6092 44.7344 60.6092C45.0554 60.6092 45.4048 60.6351 45.8365 60.6885L47.2549 60.8714L47.3973 59.4078C48.2733 50.4723 55.4871 43.7354 64.1794 43.7354C71.2888 43.7354 77.6708 48.4015 80.0585 55.3473L80.5108 56.6571L81.7964 56.2361C82.8875 55.8783 84.0181 55.6986 85.155 55.6986C91.2682 55.6986 96.2398 60.8439 96.2398 67.1712Z" fill="#2B2B2B"/>
<defs>
<clipPath id="clip0">
<rect width="98.0392" height="100" fill="white"/>
</clipPath>
</defs>
</svg>
