<?xml version="1.0" encoding="UTF-8" standalone="no"?>
<!DOCTYPE svg PUBLIC "-//W3C//DTD SVG 1.1//EN" "http://www.w3.org/Graphics/SVG/1.1/DTD/svg11.dtd">
<svg width="100%" height="100%" viewBox="0 0 230 230" version="1.1" xmlns="http://www.w3.org/2000/svg" xmlns:xlink="http://www.w3.org/1999/xlink" xml:space="preserve" xmlns:serif="http://www.serif.com/" style="fill-rule:evenodd;clip-rule:evenodd;stroke-linejoin:round;stroke-miterlimit:2;">
    <g id="夜间">
    </g>
    <g id="阴天" transform="matrix(4.15278,0,0,4.15278,-1230.5,-272.641)">
        <path id="椭圆-12-拷贝" serif:id="椭圆 12 拷贝" d="M301.772,104.524C298.91,102.764 297,99.603 297,96C297,90.481 301.481,86 307,86L307.008,86C307.273,77.124 314.561,70 323.5,70C330.305,70 336.154,74.129 338.675,80.017C345.537,80.369 351,86.052 351,93C351,99.798 345.77,105.385 339.118,105.952L339.118,103.944C344.664,103.383 349,98.694 349,93C349,86.929 344.071,82 338,82C337.763,82 337.527,82.008 337.293,82.023C335.406,76.208 329.941,72 323.5,72C315.497,72 309,78.497 309,86.5C309,87.103 309.037,87.698 309.109,88.282C308.437,88.098 307.73,88 307,88C302.585,88 299,91.585 299,96C299,99.15 300.825,101.878 303.474,103.181L301.772,103.181L301.772,104.524Z" style="stroke:black;stroke-width:0.24px;"/>
        <path id="椭圆-12-拷贝-3" serif:id="椭圆 12 拷贝 3" d="M326.182,87.59L326.179,87.588C328.233,83.112 332.756,80 338,80L338,82C336.98,82.013 335.973,82.138 334.99,82.418C331.898,83.297 329.378,85.518 328.006,88.406L327.99,88.441L327.977,88.465L327.972,88.475L327.969,88.483L327.968,88.482C327.712,88.948 327.132,89.133 326.651,88.896C326.167,88.656 325.962,88.078 326.182,87.59Z" style="stroke:black;stroke-width:0.24px;"/>
    </g>
    <g id="阴天1" serif:id="阴天" transform="matrix(3.27204,0,0,3.27204,-964.162,-132.091)">
        <path id="椭圆-12-拷贝1" serif:id="椭圆 12 拷贝" d="M307,106L307,106C301.481,106 297,101.519 297,96C297,90.481 301.481,86 307,86L307.008,86C307.273,77.124 314.561,70 323.5,70C330.305,70 336.154,74.129 338.675,80.017C345.537,80.369 351,86.052 351,93C351,100.175 345.175,106 338,106L338,104C344.071,104 349,99.071 349,93C349,86.929 344.071,82 338,82C337.763,82 337.527,82.008 337.293,82.023C335.406,76.208 329.941,72 323.5,72C315.497,72 309,78.497 309,86.5C309,87.103 309.037,87.698 309.109,88.282C308.437,88.098 307.73,88 307,88C302.585,88 299,91.585 299,96C299,100.415 302.585,104 307,104L307,106ZM307,103.999L338,103.999L338,105.999L307,105.999L307,103.999Z" style="stroke:black;stroke-width:0.31px;"/>
        <path id="椭圆-12-拷贝-31" serif:id="椭圆 12 拷贝 3" d="M326.182,87.59L326.179,87.588C328.233,83.112 332.756,80 338,80L338,82C336.98,82.013 335.973,82.138 334.99,82.418C331.898,83.297 329.378,85.518 328.006,88.406L327.99,88.441L327.977,88.465L327.972,88.475L327.969,88.483L327.968,88.482C327.712,88.948 327.132,89.133 326.651,88.896C326.167,88.656 325.962,88.078 326.182,87.59Z" style="stroke:black;stroke-width:0.31px;"/>
    </g>
</svg>
