<svg width="100" height="100" viewBox="0 0 100 100" fill="none" xmlns="http://www.w3.org/2000/svg">
<rect opacity="0.0229128" x="0.5" y="0.5" width="99" height="99" stroke="#2B2B2B"/>
<path fill-rule="evenodd" clip-rule="evenodd" d="M19.0511 60.229H12.4197C8.09672 60.229 4.58017 56.6952 4.58017 52.3506C4.58017 48.0046 8.09672 44.4693 12.4197 44.4693C12.7077 44.4693 13.0237 44.4928 13.4122 44.5398L14.6882 44.6984L14.8152 43.4206C15.6039 35.6127 22.0935 29.726 29.9138 29.726C33.3093 29.726 36.5142 30.8848 39.1018 32.8706C39.66 32.239 40.2449 31.6412 40.8623 31.0846C37.7903 28.6464 33.9429 27.2144 29.9138 27.2144C21.1837 27.2144 13.9261 33.3861 12.4817 41.9592C12.461 41.9592 12.4404 41.9592 12.4197 41.9592C6.71284 41.9592 2.0694 46.621 2.0694 52.3506C2.0694 58.0787 6.71284 62.7405 12.4197 62.7405H19.1101C19.0511 62.2206 19.0097 61.6933 19.0097 61.1558C19.0097 60.8429 19.0304 60.5359 19.0511 60.229Z" fill="#2B2B2B"/>
<path fill-rule="evenodd" clip-rule="evenodd" d="M80.9312 41.9842C79.8176 41.9842 78.7069 42.1032 77.6214 42.3396C74.1492 34.2674 66.0468 28.8829 57.2797 28.8829C46.3402 28.8829 37.2423 36.6188 35.4316 47.3627C35.405 47.3627 35.3799 47.3627 35.3548 47.3627C28.2006 47.3627 22.3815 53.2054 22.3815 60.3862C22.3815 67.5669 28.2006 73.4081 35.3548 73.4081H80.9312C89.5594 73.4081 96.5792 66.3596 96.5792 57.6969C96.5792 49.0327 89.5594 41.9842 80.9312 41.9842ZM93.4319 57.6969C93.4319 64.625 87.824 70.2606 80.9312 70.2606H35.3548C29.936 70.2606 25.5274 65.8323 25.5274 60.3862C25.5274 54.94 29.936 50.5103 35.3548 50.5103C35.7152 50.5103 36.111 50.5382 36.5984 50.5984L38.1964 50.7967L38.3574 49.1943C39.3455 39.4095 47.4804 32.0305 57.2797 32.0305C65.2965 32.0305 72.4921 37.1417 75.186 44.7469L75.694 46.1833L77.1444 45.7207C78.3761 45.33 79.6492 45.1332 80.9312 45.1332C87.824 45.1332 93.4319 50.7688 93.4319 57.6969Z" fill="#2B2B2B"/>
</svg>
