<svg width="100" height="100" viewBox="0 0 100 100" fill="none" xmlns="http://www.w3.org/2000/svg">
<rect opacity="0.0229128" x="0.5" y="0.5" width="99" height="99" stroke="#2B2B2B"/>
<path fill-rule="evenodd" clip-rule="evenodd" d="M72.3446 27.6969C71.16 27.6969 69.9785 27.8224 68.8216 28.0735C65.1277 19.4821 56.5077 13.7515 47.18 13.7515C35.5415 13.7515 25.8616 21.9847 23.9354 33.4214C23.9077 33.4199 23.88 33.4199 23.8539 33.4199C16.2431 33.4199 10.0508 39.6403 10.0508 47.2842C10.0508 54.9265 16.2431 61.1439 23.8539 61.1439H72.3446C81.5231 61.1439 88.9923 53.6408 88.9923 44.4204C88.9923 35.1985 81.5231 27.6969 72.3446 27.6969ZM85.6431 44.4204C85.6431 51.7949 79.6785 57.7934 72.3446 57.7934H23.8539C18.0892 57.7934 13.3985 53.0791 13.3985 47.2842C13.3985 41.4862 18.0892 36.7704 23.8539 36.7704C24.2385 36.7704 24.6585 36.801 25.1769 36.8638L26.8769 37.0765L27.0492 35.3699C28.0985 24.9556 36.7539 17.102 47.18 17.102C55.7108 17.102 63.3662 22.5418 66.2308 30.6372L66.7723 32.1648L68.3154 31.6735C69.6246 31.2571 70.98 31.0474 72.3446 31.0474C79.6785 31.0474 85.6431 37.0459 85.6431 44.4204Z" fill="#2B2B2B"/>
<path fill-rule="evenodd" clip-rule="evenodd" d="M24.0877 70.3673C25.4969 72.928 26.9077 75.4888 28.3169 78.0495C29.2985 79.8311 32.04 78.2408 31.0569 76.4561C29.6461 73.8954 28.2369 71.3347 26.8261 68.774C25.8446 66.9923 23.1046 68.5842 24.0877 70.3673Z" fill="#2B2B2B"/>
<path fill-rule="evenodd" clip-rule="evenodd" d="M39.8031 70.3673C41.2138 72.928 42.6246 75.4888 44.0338 78.0495C45.0154 79.8311 47.7569 78.2408 46.7738 76.4561C45.3631 73.8954 43.9538 71.3347 42.5431 68.774C41.5615 66.9923 38.8215 68.5842 39.8031 70.3673Z" fill="#2B2B2B"/>
<path fill-rule="evenodd" clip-rule="evenodd" d="M56.3231 70.3673C57.7338 72.928 59.1431 75.4888 60.5538 78.0495C61.5354 79.8311 64.2754 78.2408 63.2938 76.4561C61.8831 73.8954 60.4723 71.3347 59.0631 68.774C58.0815 66.9923 55.34 68.5842 56.3231 70.3673Z" fill="#2B2B2B"/>
<path fill-rule="evenodd" clip-rule="evenodd" d="M72.2877 70.3673C73.6985 72.928 75.1077 75.4888 76.5185 78.0495C77.5 79.8311 80.24 78.2408 79.2585 76.4561C77.8477 73.8954 76.4369 71.3347 75.0277 68.774C74.0462 66.9923 71.3046 68.5842 72.2877 70.3673Z" fill="#2B2B2B"/>
<path fill-rule="evenodd" clip-rule="evenodd" d="M37.0031 79.4408C38.4123 82.0015 39.8231 84.5622 41.2323 87.123C42.2138 88.9046 44.9554 87.3143 43.9723 85.5296C42.5631 82.9689 41.1523 80.4082 39.7415 77.8474C38.7615 76.0658 36.02 77.6561 37.0031 79.4408Z" fill="#2B2B2B"/>
<path fill-rule="evenodd" clip-rule="evenodd" d="M52.7169 79.4362C54.1277 81.997 55.5369 84.5577 56.9477 87.1184C57.9292 88.9015 60.6692 87.3097 59.6877 85.525C58.2769 82.9643 56.8662 80.4036 55.4569 77.8429C54.4754 76.0612 51.7339 77.6531 52.7169 79.4362Z" fill="#2B2B2B"/>
<path fill-rule="evenodd" clip-rule="evenodd" d="M68.7477 78.8026C70.1569 81.3633 71.5677 83.924 72.9769 86.4847C73.9585 88.2663 76.7 86.676 75.7169 84.8913C74.3062 82.3306 72.8969 79.7699 71.4862 77.2092C70.5046 75.4276 67.7646 77.0179 68.7477 78.8026Z" fill="#2B2B2B"/>
</svg>
