<svg width="100" height="100" viewBox="0 0 100 100" fill="none" xmlns="http://www.w3.org/2000/svg">
<g clip-path="url(#clip0)">
<rect opacity="0.0229128" x="0.5" y="0.5" width="98.0099" height="99" stroke="#2B2B2B"/>
<path fill-rule="evenodd" clip-rule="evenodd" d="M84.0974 50.74C83.0017 50.74 81.9076 50.86 80.8383 51.095C77.4191 43.0233 69.4423 37.64 60.8102 37.64C50.038 37.64 41.0809 45.375 39.2987 56.1183C39.2723 56.1183 39.2475 56.1183 39.2228 56.1183C32.1799 56.1183 26.4489 61.9617 26.4489 69.1417C26.4489 76.3217 32.1799 82.1633 39.2228 82.1633H84.0974C92.5924 82.1633 99.5033 75.115 99.5033 66.4517C99.5033 57.7883 92.5924 50.74 84.0974 50.74ZM96.4043 66.4517C96.4043 73.38 90.8828 79.015 84.0974 79.015H39.2228C33.8878 79.015 29.5479 74.5867 29.5479 69.1417C29.5479 63.6967 33.8878 59.265 39.2228 59.265C39.5792 59.265 39.967 59.2933 40.4472 59.3533L42.0215 59.5533L42.1799 57.95C43.1518 48.165 51.1617 40.7867 60.8102 40.7867C68.703 40.7867 75.7888 45.8967 78.439 53.5033L78.9406 54.9383L80.368 54.4767C81.5809 54.0867 82.835 53.8883 84.0974 53.8883C90.8828 53.8883 96.4043 59.5233 96.4043 66.4517Z" fill="#2B2B2B"/>
<path fill-rule="evenodd" clip-rule="evenodd" d="M21.2772 35.2683C21.8449 35.895 22.8168 35.9383 23.4373 35.365C24.0577 34.79 24.1006 33.8083 23.533 33.1817L14.3944 23.1017C13.8267 22.475 12.8531 22.4317 12.2343 23.0067C11.6138 23.58 11.5709 24.5617 12.1386 25.1883L21.2772 35.2683Z" fill="#2B2B2B"/>
<path fill-rule="evenodd" clip-rule="evenodd" d="M20.5858 60.56L10.8201 70.0217C10.2128 70.61 10.1914 71.5917 10.7739 72.205C11.3564 72.8183 12.33 72.8383 12.9373 72.25L22.7029 62.79C23.3085 62.2017 23.33 61.2183 22.7475 60.605C22.165 59.9933 21.1914 59.9717 20.5858 60.56Z" fill="#2B2B2B"/>
<path fill-rule="evenodd" clip-rule="evenodd" d="M36.5049 30.8267C37.3449 30.88 38.0743 30.23 38.1271 29.3833L38.9769 15.7417C39.0297 14.8933 38.3861 14.1567 37.5479 14.1033C36.7079 14.05 35.9785 14.7 35.9257 15.5483L35.0759 29.1883C35.0231 30.0367 35.6667 30.7733 36.5049 30.8267Z" fill="#2B2B2B"/>
<path fill-rule="evenodd" clip-rule="evenodd" d="M18.061 47.1667C18.127 46.32 17.4934 45.5733 16.6551 45.5067L3.16333 44.45C2.32505 44.3833 1.58578 45.0233 1.51977 45.87C1.45541 46.7167 2.08743 47.4633 2.92736 47.53L16.4191 48.5867C17.2574 48.6533 17.9967 48.0133 18.061 47.1667Z" fill="#2B2B2B"/>
<path fill-rule="evenodd" clip-rule="evenodd" d="M41.9307 36.1267C40.2046 35.1633 38.2591 34.2967 36.1666 34.14C28.3713 33.5533 21.5561 39.4833 20.9769 47.3567C20.6023 52.4433 22.929 57.1067 26.7195 59.935C27.1336 59.1933 27.6914 58.3817 28.4356 57.5833C25.4191 55.3317 23.566 51.6217 23.8647 47.5733C24.3267 41.3083 29.7492 36.59 35.9505 37.0567C37.1666 37.1483 36.8366 36.8333 37.9059 37.2783L38.3201 37.4367C38.3201 37.4367 39.6204 36.0883 41.9307 36.1267Z" fill="#2B2B2B"/>
<path fill-rule="evenodd" clip-rule="evenodd" d="M91.6766 46.175C91.6766 39.2383 86.1436 33.595 79.3416 33.595C78.4637 33.595 77.5875 33.69 76.731 33.8783C73.995 27.415 67.6073 23.1033 60.6947 23.1033C52.071 23.1033 44.8977 29.2983 43.4703 37.9C43.4505 37.9 43.429 37.9 43.4092 37.9C37.7706 37.9 33.1815 42.5783 33.1815 48.3283C33.1815 50.045 33.6023 51.6567 34.3267 53.0833C34.9059 52.7933 35.7178 52.5033 36.764 52.3367C36.0759 51.16 35.6634 49.7967 35.6634 48.3283C35.6634 43.9683 39.1386 40.42 43.4092 40.42C43.6947 40.42 44.0066 40.4433 44.3894 40.4917L45.6502 40.65L45.7772 39.3667C46.5561 31.5333 52.9686 25.625 60.6947 25.625C67.0149 25.625 72.6881 29.7167 74.8119 35.8067L75.2129 36.9567L76.3564 36.5867C77.3267 36.2733 78.33 36.115 79.3416 36.115C84.7756 36.115 89.1964 40.6283 89.1964 46.175C89.1964 46.74 89.1419 47.2917 89.0528 47.8317C89.7343 47.9933 90.5875 48.275 91.4043 48.75C91.5759 47.9183 91.6766 47.0583 91.6766 46.175Z" fill="#2B2B2B"/>
</g>
<defs>
<clipPath id="clip0">
<rect width="100" height="100" fill="white"/>
</clipPath>
</defs>
</svg>
