<?xml version="1.0" encoding="UTF-8" standalone="no"?>
<!DOCTYPE svg PUBLIC "-//W3C//DTD SVG 1.1//EN" "http://www.w3.org/Graphics/SVG/1.1/DTD/svg11.dtd">
<svg width="100%" height="100%" viewBox="0 0 230 230" version="1.1" xmlns="http://www.w3.org/2000/svg" xmlns:xlink="http://www.w3.org/1999/xlink" xml:space="preserve" xmlns:serif="http://www.serif.com/" style="fill-rule:evenodd;clip-rule:evenodd;stroke-linejoin:round;stroke-miterlimit:2;">
    <g id="阵雨" transform="matrix(3.46383,0,0,3.46383,-2688.97,-184.624)">
        <path id="形状-3" serif:id="形状 3" d="M812.972,107.999C812.972,107.999 809.228,109.988 808.452,111.279C806.832,113.973 809.941,116.37 812.068,114.09C812.995,113.097 812.972,107.999 812.972,107.999ZM821.899,100.999C821.899,100.999 818.437,103 817.574,104.213C815.492,107.141 819.869,109.391 821.358,106.893C822.014,105.792 821.899,100.999 821.899,100.999ZM811.899,97.998C811.899,97.998 808.437,100.001 807.574,101.214C805.492,104.141 809.869,106.391 811.358,103.893C812.014,102.792 811.899,97.998 811.899,97.998Z" style="stroke:black;stroke-width:0.29px;"/>
        <path id="椭圆-62" serif:id="椭圆 62" d="M784.678,93.735L786.675,91.738C787.065,91.348 787.065,90.715 786.675,90.324C786.284,89.934 785.651,89.934 785.26,90.324L783.264,92.32C782.874,92.71 782.874,93.344 783.264,93.735C783.655,94.125 784.288,94.125 784.678,93.735ZM788.149,87.479C786.187,85.202 785,82.238 785,79C785,71.825 790.825,66 798,66C801.221,66 804.17,67.174 806.441,69.117C806.523,69.161 806.6,69.217 806.669,69.285C807.063,69.671 807.069,70.305 806.683,70.699C806.302,71.087 805.682,71.099 805.287,70.729L805.272,70.746C803.334,69.036 800.788,67.998 798,67.998C791.925,67.998 787,72.923 787,78.999C787,81.718 787.987,84.207 789.622,86.126L789.611,86.14C790.02,86.481 790.089,87.089 789.761,87.515C789.424,87.952 788.796,88.035 788.359,87.697L788.338,87.68L788.332,87.686L788.291,87.64C788.237,87.59 788.19,87.536 788.149,87.479ZM778,78C777.448,78 777,78.448 777,79C777,79.552 777.448,80 778,80L781,80C781.552,80 782,79.552 782,79C782,78.448 781.552,78 781,78L778,78ZM811.322,64.263L809.325,66.259C808.935,66.65 808.935,67.283 809.325,67.674C809.716,68.064 810.349,68.064 810.74,67.674L812.736,65.677C813.126,65.286 813.126,64.653 812.736,64.263C812.345,63.872 811.712,63.872 811.322,64.263ZM784.678,64.263L786.675,66.259C787.065,66.65 787.065,67.283 786.675,67.674C786.284,68.064 785.651,68.064 785.26,67.674L783.264,65.677C782.874,65.286 782.874,64.653 783.264,64.263C783.655,63.872 784.288,63.872 784.678,64.263ZM799,59C799,58.448 798.552,58 798,58C797.448,58 797,58.448 797,59L797,62C797,62.552 797.448,63 798,63C798.552,63 799,62.552 799,62L799,59Z" style="stroke:black;stroke-width:0.29px;"/>
        <path id="椭圆-12-拷贝" serif:id="椭圆 12 拷贝" d="M798,107C792.481,107 788,102.519 788,97C788,91.481 792.481,87 798,87L798.008,87C798.273,78.124 805.561,71 814.5,71C821.305,71 827.154,75.129 829.675,81.017C836.537,81.369 842,87.052 842,94C842,101.175 836.175,107 829,107C828.736,107 828.474,106.992 828.215,106.976C828.146,106.992 828.074,107 828,107C827.448,107 827,106.552 827,106C827,105.448 827.448,105 828,105L828,104.954C828.33,104.985 828.663,105 829,105C835.071,105 840,100.071 840,94C840,87.929 835.071,83 829,83C828.763,83 828.527,83.008 828.293,83.023C826.406,77.208 820.941,73 814.5,73C806.497,73 800,79.497 800,87.5C800,88.103 800.037,88.698 800.109,89.282C799.437,89.098 798.73,89 798,89C793.585,89 790,92.585 790,97C790,101.415 793.585,105 798,105L798,104.999L801,104.999L801,105L801,105C801.552,105 802,105.448 802,106C802,106.552 801.552,107 801,107L800.972,106.999L798,106.999L798,107Z" style="stroke:black;stroke-width:0.29px;"/>
        <path id="椭圆-12-拷贝-3" serif:id="椭圆 12 拷贝 3" d="M817.182,88.59L817.179,88.588C819.233,84.112 823.756,81 829,81L829,83C827.98,83.013 826.973,83.138 825.99,83.418C822.897,84.297 820.377,86.518 819.005,89.407L818.99,89.441L818.978,89.464L818.972,89.475L818.969,89.483L818.967,89.482C818.712,89.948 818.132,90.133 817.651,89.895C817.167,89.656 816.962,89.078 817.182,88.59Z" style="stroke:black;stroke-width:0.29px;"/>
    </g>
</svg>
