<svg width="100" height="100" viewBox="0 0 100 100" fill="none" xmlns="http://www.w3.org/2000/svg">
<rect opacity="0.0229128" x="0.5" y="0.5" width="99" height="99" stroke="#2B2B2B"/>
<path fill-rule="evenodd" clip-rule="evenodd" d="M70.9778 30.5422C69.8641 30.5422 68.7517 30.6621 67.6642 30.8977C64.1876 22.7963 56.0763 17.3913 47.299 17.3913C36.3467 17.3913 27.2391 25.1565 25.4248 35.9403C25.3999 35.9403 25.3737 35.9403 25.3488 35.9403C18.1868 35.9403 12.3597 41.8055 12.3597 49.0141C12.3597 56.2226 18.1868 62.0864 25.3488 62.0864H70.9778C79.6156 62.0864 86.6435 55.0101 86.6435 46.3136C86.6435 37.6171 79.6156 30.5422 70.9778 30.5422ZM83.4929 46.3136C83.4929 53.2686 77.88 58.9258 70.9778 58.9258H25.3488C19.9238 58.9258 15.5103 54.4797 15.5103 49.0141C15.5103 43.547 19.9238 39.0996 25.3488 39.0996C25.7108 39.0996 26.106 39.1285 26.5924 39.1877L28.194 39.3889L28.3543 37.7797C29.3436 27.9575 37.4881 20.5505 47.299 20.5505C55.326 20.5505 62.5294 25.68 65.2253 33.3157L65.7352 34.7568L67.1875 34.2925C68.4201 33.9012 69.6955 33.7028 70.9778 33.7028C77.88 33.7028 83.4929 39.36 83.4929 46.3136Z" fill="#2B2B2B"/>
<path fill-rule="evenodd" clip-rule="evenodd" d="M25.5685 70.7843C26.8951 73.1996 28.2216 75.6134 29.5495 78.0287C30.4726 79.7096 33.0511 78.2092 32.1266 76.5269C30.8001 74.1116 29.4735 71.6964 28.1456 69.2812C27.2225 67.6003 24.6441 69.1007 25.5685 70.7843Z" fill="#2B2B2B"/>
<path fill-rule="evenodd" clip-rule="evenodd" d="M40.3581 70.7843C41.6847 73.1996 43.0112 75.6134 44.3377 78.0287C45.2622 79.7096 47.8407 78.2092 46.9162 76.5269C45.5897 74.1116 44.2631 71.6964 42.9352 69.2812C42.0121 67.6003 39.4323 69.1007 40.3581 70.7843Z" fill="#2B2B2B"/>
<path fill-rule="evenodd" clip-rule="evenodd" d="M55.9022 70.7843C57.2301 73.1996 58.5567 75.6134 59.8832 78.0287C60.8063 79.7096 63.3861 78.2092 62.4617 76.5269C61.1351 74.1116 59.8072 71.6964 58.4807 69.2812C57.5576 67.6003 54.9777 69.1007 55.9022 70.7843Z" fill="#2B2B2B"/>
<path fill-rule="evenodd" clip-rule="evenodd" d="M70.9253 70.7843C72.2519 73.1996 73.5798 75.6134 74.9063 78.0287C75.8294 79.7096 78.4092 78.2092 77.4848 76.5269C76.1569 74.1116 74.8303 71.6964 73.5038 69.2812C72.5794 67.6003 70.0009 69.1007 70.9253 70.7843Z" fill="#2B2B2B"/>
</svg>
