<?xml version="1.0" encoding="UTF-8" standalone="no"?>
<!DOCTYPE svg PUBLIC "-//W3C//DTD SVG 1.1//EN" "http://www.w3.org/Graphics/SVG/1.1/DTD/svg11.dtd">
<svg width="100%" height="100%" viewBox="0 0 230 230" version="1.1" xmlns="http://www.w3.org/2000/svg" xmlns:xlink="http://www.w3.org/1999/xlink" xml:space="preserve" xmlns:serif="http://www.serif.com/" style="fill-rule:evenodd;clip-rule:evenodd;stroke-linejoin:round;stroke-miterlimit:2;">
    <g id="夜间">
    </g>
    <g id="强雷暴" transform="matrix(4.10605,0,0,4.10605,-3231.08,-839.384)">
        <path id="形状-3-拷贝-3" serif:id="形状 3 拷贝 3" d="M818,235.999L816,243.999L820,243.999L811,254.999L813,246.998L809,246.998L818,235.999Z" style="stroke:black;stroke-width:0.24px;"/>
        <path id="椭圆-12-拷贝" serif:id="椭圆 12 拷贝" d="M798,247C792.481,247 788,242.519 788,237C788,231.481 792.481,227 798,227L798.008,227C798.273,218.124 805.561,211 814.5,211C821.305,211 827.154,215.129 829.675,221.017C836.537,221.369 842,227.052 842,234C842,241.175 836.175,247 829,247L829,245C835.071,245 840,240.071 840,234C840,227.929 835.071,223 829,223C828.763,223 828.528,223.007 828.294,223.022C826.406,217.208 820.941,213 814.5,213C806.497,213 800,219.497 800,227.5C800,228.103 800.037,228.698 800.109,229.282C799.437,229.098 798.73,229 798,229C793.585,229 790,232.585 790,237C790,241.415 793.585,245 798,245L798,244.999L800,244.999L800,245L800,245C800.552,245 801,245.448 801,246C801,246.552 800.552,247 800,247C799.982,247 799.963,247 799.945,246.998L798,246.998L798,247ZM829,244.999L829,246.998L828.055,246.998C828.037,247 828.018,247 828,247C827.448,247 827,246.552 827,246C827,245.448 827.448,245 828,245L828,244.999L829,244.999Z" style="stroke:black;stroke-width:0.24px;"/>
        <path id="椭圆-12-拷贝-3" serif:id="椭圆 12 拷贝 3" d="M817.182,228.59L817.179,228.588C819.233,224.112 823.756,221 829,221L829,223C827.98,223.013 826.973,223.138 825.99,223.418C822.898,224.296 820.379,226.517 819.007,229.403L818.99,229.441L818.976,229.467L818.972,229.475L818.969,229.483L818.967,229.483C818.712,229.948 818.132,230.133 817.651,229.895C817.167,229.657 816.962,229.078 817.182,228.59Z" style="stroke:black;stroke-width:0.24px;"/>
    </g>
</svg>
