<svg width="100" height="100" viewBox="0 0 100 100" fill="none" xmlns="http://www.w3.org/2000/svg">
<rect opacity="0.0229128" x="0.5" y="0.5" width="99" height="99" stroke="#2B2B2B"/>
<path fill-rule="evenodd" clip-rule="evenodd" d="M72.0358 22.266C70.9014 22.266 69.7684 22.3864 68.6608 22.6272C65.1198 14.3938 56.8583 8.90161 47.9184 8.90161C36.7633 8.90161 27.4857 16.7934 25.6392 27.7512C25.6124 27.7512 25.5871 27.7512 25.5604 27.7512C18.2672 27.7512 12.3322 33.711 12.3322 41.0358C12.3322 48.3592 18.2672 54.3176 25.5604 54.3176H72.0358C80.8335 54.3176 87.9916 47.1286 87.9916 38.2918C87.9916 29.455 80.8335 22.266 72.0358 22.266ZM84.7827 38.2918C84.7827 45.359 79.0644 51.1074 72.0358 51.1074H25.5604C20.0363 51.1074 15.541 46.5896 15.541 41.0358C15.541 35.4806 20.0363 30.9614 25.5604 30.9614C25.9291 30.9614 26.333 30.9894 26.8285 31.051L28.4596 31.254L28.6229 29.6188C29.6306 19.6396 37.9259 12.1132 47.9184 12.1132C56.0927 12.1132 63.4309 17.3254 66.1767 25.0842L66.6961 26.5486L68.1753 26.0768C69.4307 25.6778 70.7283 25.4762 72.0358 25.4762C79.0644 25.4762 84.7827 31.2246 84.7827 38.2918Z" fill="#2B2B2B"/>
<path fill-rule="evenodd" clip-rule="evenodd" d="M25.7856 63.1558C27.1367 65.61 28.4878 68.0642 29.8389 70.5184C30.7805 72.2264 33.4067 70.7018 32.4651 68.991C31.114 66.5368 29.7615 64.084 28.4104 61.6298C27.4702 59.9218 24.8426 61.4464 25.7856 63.1558Z" fill="#2B2B2B"/>
<path fill-rule="evenodd" clip-rule="evenodd" d="M71.9823 63.1558C73.3334 65.61 74.6845 68.0642 76.0371 70.5184C76.9772 72.2264 79.6034 70.7018 78.6619 68.991C77.3108 66.5368 75.9596 64.084 74.6071 61.6298C73.667 59.9218 71.0408 61.4464 71.9823 63.1558Z" fill="#2B2B2B"/>
<path fill-rule="evenodd" clip-rule="evenodd" d="M68.5876 71.2394C69.9402 73.6936 71.2913 76.1478 72.6424 78.6006C73.5839 80.3086 76.2102 78.784 75.2686 77.0746C73.9175 74.6204 72.5664 72.1662 71.2139 69.7134C70.2737 68.0054 67.6461 69.53 68.5876 71.2394Z" fill="#2B2B2B"/>
<path fill-rule="evenodd" clip-rule="evenodd" d="M15.1807 62.0596C16.5332 64.5124 17.8843 66.9666 19.2355 69.4208C20.177 71.1288 22.8032 69.6042 21.8617 67.8934C20.5106 65.4406 19.1581 62.9864 17.8069 60.5322C16.8668 58.8242 14.2392 60.3488 15.1807 62.0596Z" fill="#2B2B2B"/>
<path fill-rule="evenodd" clip-rule="evenodd" d="M25.7856 73.5396C27.1367 75.9924 28.4878 78.4466 29.8389 80.9008C30.7805 82.6088 33.4067 81.0842 32.4651 79.3734C31.114 76.9206 29.7615 74.4664 28.4104 72.0122C27.4702 70.3042 24.8426 71.8288 25.7856 73.5396Z" fill="#2B2B2B"/>
<path fill-rule="evenodd" clip-rule="evenodd" d="M55.123 54.1664L54.7993 54.3176H55.1947L55.123 54.1664Z" fill="#2B2B2B"/>
<path fill-rule="evenodd" clip-rule="evenodd" d="M40.4521 54.032L39.999 54.3176H40.6351L40.4521 54.032Z" fill="#2B2B2B"/>
<path fill-rule="evenodd" clip-rule="evenodd" d="M61.5323 73.4416H56.6359C55.9871 73.4416 55.3847 73.7622 55.0245 74.2998C54.6642 74.8374 54.598 75.515 54.8485 76.1128L59.4451 87.051L40.7238 67.3026H45.4105C46.117 67.3026 46.7672 66.919 47.1078 66.303C47.4484 65.6856 47.4245 64.9338 47.0445 64.3402L42.4141 57.1008H39.5317L44.5069 64.882H39.5767C38.8013 64.882 38.1032 65.3384 37.7964 66.0454C37.491 66.7524 37.6359 67.5714 38.1665 68.1314L59.5422 90.6798C59.925 91.0844 60.4303 91.293 60.944 91.293C61.3085 91.293 61.6759 91.188 62.0052 90.9752C62.8046 90.46 63.1072 89.4898 62.7399 88.6148L57.3805 75.8608H62.3134C62.9805 75.8608 63.5927 75.5262 63.9502 74.9662C64.3063 74.4048 64.3499 73.7118 64.067 73.1154L56.5079 57.1008H53.8197L61.5323 73.4416Z" fill="#2B2B2B"/>
</svg>
