<?xml version="1.0" encoding="UTF-8" standalone="no"?>
<!DOCTYPE svg PUBLIC "-//W3C//DTD SVG 1.1//EN" "http://www.w3.org/Graphics/SVG/1.1/DTD/svg11.dtd">
<svg width="100%" height="100%" viewBox="0 0 230 230" version="1.1" xmlns="http://www.w3.org/2000/svg" xmlns:xlink="http://www.w3.org/1999/xlink" xml:space="preserve" xmlns:serif="http://www.serif.com/" style="fill-rule:evenodd;clip-rule:evenodd;stroke-linejoin:round;stroke-miterlimit:2;">
    <g id="大雪" transform="matrix(4.81715,0,0,4.81715,-2262.09,-3042.64)">
        <path id="圆角矩形-57" serif:id="圆角矩形 57" d="M512,671.096L512,669C512,668.448 512.448,668 513,668C513.552,668 514,668.448 514,669L514,671.096L515.5,670.102C515.978,669.825 516.59,669.989 516.866,670.467C517.142,670.945 516.978,671.557 516.5,671.833L514.806,672.957L516.531,674.101C517.009,674.378 517.173,674.989 516.897,675.467C516.621,675.945 516.009,676.109 515.531,675.833L514,674.818L514,677C514,677.552 513.552,678 513,678C512.448,678 512,677.552 512,677L512,674.818L510.469,675.833C509.991,676.109 509.379,675.945 509.103,675.467C508.827,674.989 508.991,674.378 509.469,674.101L511.194,672.957L509.5,671.833C509.022,671.557 508.858,670.945 509.134,670.467C509.41,669.989 510.022,669.825 510.5,670.102L512,671.096Z" style="stroke:black;stroke-width:0.21px;"/>
        <path id="椭圆-63" serif:id="椭圆 63" d="M488,638.616L488,634C488,633.448 488.448,633 489,633C489.552,633 490,633.448 490,634L490,638.616L493.325,635.291C493.715,634.9 494.348,634.9 494.739,635.291C495.129,635.681 495.129,636.315 494.739,636.705L490,641.444L490,649.1C491.081,649.32 492.035,649.889 492.74,650.684L499.373,646.855L501.107,640.381C501.25,639.849 501.798,639.531 502.332,639.674C502.865,639.817 503.182,640.366 503.039,640.899L501.822,645.441L505.821,643.132C506.299,642.857 506.91,643.02 507.186,643.499C507.463,643.977 507.299,644.589 506.82,644.865L502.822,647.173L507.364,648.39C507.897,648.533 508.214,649.082 508.071,649.615C507.928,650.148 507.379,650.465 506.846,650.322L500.373,648.587L493.743,652.415C493.91,652.913 494,653.446 494,654C494,654.553 493.91,655.085 493.744,655.583L500.373,659.41L506.846,657.675C507.379,657.532 507.928,657.849 508.071,658.382C508.214,658.916 507.897,659.464 507.364,659.607L502.822,660.824L506.82,663.133C507.299,663.408 507.463,664.02 507.186,664.499C506.91,664.977 506.299,665.141 505.821,664.865L501.822,662.556L503.039,667.098C503.182,667.631 502.865,668.18 502.332,668.322C501.798,668.465 501.25,668.149 501.107,667.616L499.372,661.142L492.742,657.313C492.037,658.11 491.082,658.68 490,658.9L490,666.553L494.739,671.292C495.129,671.683 495.129,672.316 494.739,672.706C494.348,673.097 493.715,673.097 493.325,672.706L490,669.381L490,674.357C490,674.909 489.552,675.357 489,675.357C488.448,675.357 488,674.909 488,674.357L488,669.381L484.675,672.706C484.285,673.097 483.651,673.097 483.261,672.706C482.871,672.316 482.871,671.683 483.261,671.292L488,666.553L488,658.9C486.918,658.68 485.963,658.11 485.258,657.313L478.627,661.142L476.893,667.616C476.75,668.149 476.202,668.465 475.668,668.322C475.135,668.18 474.818,667.631 474.961,667.098L476.178,662.556L472.179,664.865C471.701,665.141 471.09,664.977 470.813,664.499C470.537,664.02 470.701,663.408 471.179,663.133L475.178,660.824L470.636,659.607C470.103,659.464 469.786,658.916 469.929,658.382C470.072,657.849 470.62,657.532 471.154,657.675L477.627,659.41L484.256,655.583C484.09,655.085 484,654.553 484,654C484,653.446 484.09,652.913 484.257,652.415L477.627,648.587L471.154,650.322C470.62,650.465 470.072,650.148 469.929,649.615C469.786,649.082 470.103,648.533 470.636,648.39L475.178,647.173L471.179,644.865C470.701,644.589 470.537,643.977 470.813,643.499C471.09,643.02 471.701,642.857 472.179,643.132L476.178,645.441L474.961,640.899C474.818,640.366 475.135,639.817 475.668,639.674C476.202,639.531 476.75,639.849 476.893,640.381L478.627,646.855L485.26,650.684C485.965,649.889 486.919,649.32 488,649.1L488,641.444L483.261,636.705C482.871,636.315 482.871,635.681 483.261,635.291C483.651,634.9 484.285,634.9 484.675,635.291L488,638.616ZM489,651C490.656,651 492,652.344 492,654C492,655.656 490.656,657 489,657C487.344,657 486,655.656 486,654C486,652.344 487.344,651 489,651Z" style="stroke:black;stroke-width:0.21px;"/>
    </g>
</svg>
