<svg width="100" height="100" viewBox="0 0 100 100" fill="none" xmlns="http://www.w3.org/2000/svg">
<rect opacity="0.0229128" x="0.5" y="0.5" width="99" height="99" stroke="#2B2B2B"/>
<path fill-rule="evenodd" clip-rule="evenodd" d="M15.592 66.8071H87.3505C88.3829 66.8071 89.2276 66.0146 89.2276 65.0444C89.2276 64.0758 88.3829 63.2833 87.3505 63.2833H15.592C14.5596 63.2833 13.7148 64.0758 13.7148 65.0444C13.7148 66.0146 14.5596 66.8071 15.592 66.8071Z" fill="#2B2B2B"/>
<path fill-rule="evenodd" clip-rule="evenodd" d="M32.3054 78.1921H87.3505C88.3829 78.1921 89.2276 77.3997 89.2276 76.4294C89.2276 75.4608 88.3829 74.6683 87.3505 74.6683H32.3054C31.273 74.6683 30.4265 75.4608 30.4265 76.4294C30.4265 77.3997 31.273 78.1921 32.3054 78.1921Z" fill="#2B2B2B"/>
<path fill-rule="evenodd" clip-rule="evenodd" d="M72.7488 23.68C71.5756 23.68 70.4059 23.8017 69.2622 24.04C65.6053 15.8433 57.0713 10.375 47.8386 10.375C36.3169 10.375 26.7348 18.2317 24.8281 29.1417C24.8003 29.1417 24.7743 29.1417 24.7464 29.1417C17.2136 29.1417 11.0834 35.075 11.0834 42.3683C11.0834 49.6617 17.2136 55.5933 24.7464 55.5933H72.7488C81.8355 55.5933 89.2276 48.435 89.2276 39.6367C89.2276 30.8383 81.8355 23.68 72.7488 23.68ZM85.913 39.6367C85.913 46.6733 80.0088 52.3967 72.7488 52.3967H24.7464C19.0403 52.3967 14.3979 47.8983 14.3979 42.3683C14.3979 36.8383 19.0403 32.3383 24.7464 32.3383C25.1271 32.3383 25.5442 32.3667 26.057 32.4283L27.7412 32.63L27.9098 31.0017C28.9491 21.065 37.5179 13.5717 47.8386 13.5717C56.2822 13.5717 63.8603 18.7617 66.6968 26.4867L67.2339 27.945L68.7599 27.475C70.0565 27.0783 71.3983 26.8767 72.7488 26.8767C80.0088 26.8767 85.913 32.6 85.913 39.6367Z" fill="#2B2B2B"/>
<path fill-rule="evenodd" clip-rule="evenodd" d="M50.4527 89.1205H87.3505C88.3829 89.1205 89.2276 88.3276 89.2276 87.3586C89.2276 86.3895 88.3829 85.5967 87.3505 85.5967H50.4527C49.4186 85.5967 48.5739 86.3895 48.5739 87.3586C48.5739 88.3276 49.4186 89.1205 50.4527 89.1205Z" fill="#2B2B2B"/>
</svg>
