<?xml version="1.0" encoding="UTF-8" standalone="no"?>
<!DOCTYPE svg PUBLIC "-//W3C//DTD SVG 1.1//EN" "http://www.w3.org/Graphics/SVG/1.1/DTD/svg11.dtd">
<svg width="100%" height="100%" viewBox="0 0 271 205" version="1.1" xmlns="http://www.w3.org/2000/svg" xmlns:xlink="http://www.w3.org/1999/xlink" xml:space="preserve" xmlns:serif="http://www.serif.com/" style="fill-rule:evenodd;clip-rule:evenodd;stroke-linejoin:round;stroke-miterlimit:2;">
    <g transform="matrix(4.16667,0,0,4.16667,-1879.17,-241.667)">
        <g id="多云">
            <path id="椭圆-62" serif:id="椭圆 62" d="M458.678,93.735L460.675,91.738C461.065,91.348 461.065,90.715 460.675,90.324C460.284,89.934 459.651,89.934 459.26,90.324L457.264,92.32C456.874,92.71 456.874,93.344 457.264,93.735C457.655,94.125 458.288,94.125 458.678,93.735ZM462.149,87.479C460.187,85.202 459,82.238 459,79C459,71.825 464.825,66 472,66C475.221,66 478.17,67.174 480.441,69.118C480.523,69.161 480.6,69.217 480.669,69.285C481.063,69.671 481.069,70.305 480.683,70.699C480.302,71.087 479.682,71.099 479.287,70.729L479.272,70.746C477.333,69.036 474.788,67.998 472,67.998C465.925,67.998 461,72.923 461,78.999C461,81.718 461.987,84.207 463.623,86.126L463.611,86.14C464.02,86.481 464.089,87.089 463.761,87.515C463.424,87.952 462.796,88.035 462.359,87.697L462.338,87.68L462.332,87.686L462.291,87.639C462.237,87.59 462.19,87.536 462.149,87.479ZM456,78L451,78L451,80L456,80L456,78ZM485.322,64.263L483.325,66.259C482.935,66.65 482.935,67.283 483.325,67.674C483.716,68.064 484.349,68.064 484.74,67.674L486.736,65.677C487.126,65.286 487.126,64.653 486.736,64.263C486.345,63.872 485.712,63.872 485.322,64.263ZM458.678,64.263L460.675,66.259C461.065,66.65 461.065,67.283 460.675,67.674C460.284,68.064 459.651,68.064 459.26,67.674L457.264,65.677C456.874,65.286 456.874,64.653 457.264,64.263C457.655,63.872 458.288,63.872 458.678,64.263ZM473,59C473,58.448 472.552,58 472,58C471.448,58 471,58.448 471,59L471,62C471,62.552 471.448,63 472,63C472.552,63 473,62.552 473,62L473,59Z" style="fill:rgb(239,209,11);"/>
            <path id="椭圆-12-拷贝" serif:id="椭圆 12 拷贝" d="M472,106.999L472,107C466.481,107 462,102.519 462,97C462,91.481 466.481,87 472,87L472.008,87C472.273,78.124 479.561,71 488.5,71C495.305,71 501.154,75.129 503.675,81.017C510.537,81.369 516,87.052 516,94C516,101.175 510.175,107 503,107L503,106.999L472,106.999ZM472,104.999L503,104.999L503,105C509.071,105 514,100.071 514,94C514,87.929 509.071,83 503,83C502.763,83 502.527,83.008 502.293,83.023C500.406,77.208 494.941,73 488.5,73C480.497,73 474,79.497 474,87.5C474,88.103 474.037,88.698 474.109,89.282C473.437,89.098 472.73,89 472,89C467.585,89 464,92.585 464,97C464,101.415 467.585,105 472,105L472,104.999Z" style="fill:white;"/>
            <path id="椭圆-12-拷贝-3" serif:id="椭圆 12 拷贝 3" d="M491.182,88.59L491.179,88.588C493.233,84.112 497.756,81 503,81L503,83C501.98,83.013 500.973,83.138 499.99,83.418C496.897,84.297 494.377,86.518 493.005,89.407L492.99,89.441L492.978,89.464L492.972,89.475L492.969,89.483L492.967,89.482C492.712,89.948 492.132,90.133 491.651,89.895C491.167,89.656 490.962,89.078 491.182,88.59Z" style="fill:white;"/>
        </g>
    </g>
</svg>
