<?xml version="1.0" encoding="UTF-8" standalone="no"?>
<!DOCTYPE svg PUBLIC "-//W3C//DTD SVG 1.1//EN" "http://www.w3.org/Graphics/SVG/1.1/DTD/svg11.dtd">
<svg width="100%" height="100%" viewBox="0 0 230 184" version="1.1" xmlns="http://www.w3.org/2000/svg" xmlns:xlink="http://www.w3.org/1999/xlink" xml:space="preserve" xmlns:serif="http://www.serif.com/" style="fill-rule:evenodd;clip-rule:evenodd;stroke-linejoin:round;stroke-miterlimit:2;">
    <g transform="matrix(4.16667,0,0,4.16667,-2600,-266.667)">
        <g id="有雾">
            <path id="圆角矩形-56" serif:id="圆角矩形 56" d="M671,106L632,106L632,108L671,108L671,106ZM652,99L627,99L627,101L652,101L652,99ZM679,93C679,92.448 678.552,92 678,92L625,92C624.448,92 624,92.448 624,93C624,93.552 624.448,94 625,94L678,94C678.552,94 679,93.552 679,93Z" style="fill:white;"/>
            <path id="椭圆-12-拷贝" serif:id="椭圆 12 拷贝" d="M675.954,88C675.985,87.67 676,87.337 676,87C676,80.929 671.071,76 665,76C664.763,76 664.527,76.008 664.293,76.023C662.406,70.208 656.941,66 650.5,66C642.497,66 636,72.497 636,80.5C636,81.103 636.037,81.698 636.109,82.282C635.437,82.098 634.73,82 634,82C630.275,82 627.142,84.551 626.252,88L626.219,88C626.219,88.552 625.771,89 625.219,89C624.667,89 624.219,88.552 624.219,88L624.201,88L624.227,87.875L624.239,87.799C624.247,87.767 624.256,87.735 624.264,87.703L624.271,87.682C625.317,83.279 629.278,80 634,80L634.008,80C634.273,71.124 641.561,64 650.5,64C657.305,64 663.154,68.129 665.675,74.017C672.537,74.369 678,80.052 678,87C678,87.317 677.989,87.631 677.966,87.943L677.969,88C677.969,88.552 677.521,89 676.969,89C676.417,89 675.969,88.552 675.969,88L675.954,88Z" style="fill:white;"/>
            <path id="椭圆-12-拷贝-3" serif:id="椭圆 12 拷贝 3" d="M653.182,81.59L653.179,81.588C655.233,77.112 659.756,74 665,74L665,76C663.98,76.013 662.973,76.138 661.99,76.418C658.898,77.297 656.378,79.518 655.006,82.405L654.99,82.441L654.977,82.465L654.972,82.475L654.969,82.483L654.968,82.482C654.712,82.948 654.132,83.133 653.651,82.896C653.167,82.656 652.962,82.078 653.182,81.59Z" style="fill:white;"/>
        </g>
    </g>
</svg>
