<?xml version="1.0" encoding="UTF-8" standalone="no"?>
<!DOCTYPE svg PUBLIC "-//W3C//DTD SVG 1.1//EN" "http://www.w3.org/Graphics/SVG/1.1/DTD/svg11.dtd">
<svg width="100%" height="100%" viewBox="0 0 225 176" version="1.1" xmlns="http://www.w3.org/2000/svg" xmlns:xlink="http://www.w3.org/1999/xlink" xml:space="preserve" xmlns:serif="http://www.serif.com/" style="fill-rule:evenodd;clip-rule:evenodd;stroke-linejoin:round;stroke-miterlimit:2;">
    <g transform="matrix(4.16667,0,0,4.16667,-550,-879.167)">
        <g id="小雨">
            <path id="椭圆-12-拷贝-2" serif:id="椭圆 12 拷贝 2" d="M162.855,228.612L162.851,228.61C162.644,228.967 162.186,229.089 161.828,228.882C161.469,228.675 161.347,228.216 161.554,227.858C161.563,227.842 161.579,227.833 161.589,227.818C163.786,223.761 168.062,220.998 173,220.998L173,222.499C168.598,222.499 164.786,224.978 162.855,228.612Z" style="fill:white;"/>
            <path id="形状-3-拷贝-2" serif:id="形状 3 拷贝 2" d="M159.966,244.998C159.966,244.998 155.473,247.272 154.542,248.747C152.599,251.827 156.329,254.566 158.881,251.961C159.994,250.825 159.966,244.998 159.966,244.998Z" style="fill:rgb(157,211,255);"/>
            <path id="椭圆-12-拷贝" serif:id="椭圆 12 拷贝" d="M142,247C136.481,247 132,242.519 132,237C132,231.481 136.481,227 142,227L142.008,227C142.273,218.124 149.561,211 158.5,211C165.305,211 171.154,215.129 173.675,221.017C180.537,221.369 186,227.052 186,234C186,241.175 180.175,247 173,247L173,245C179.071,245 184,240.071 184,234C184,227.929 179.071,223 173,223C172.763,223 172.527,223.008 172.293,223.023C170.406,217.208 164.941,213 158.5,213C150.497,213 144,219.497 144,227.5C144,228.103 144.037,228.698 144.109,229.282C143.437,229.098 142.73,229 142,229C137.585,229 134,232.585 134,237C134,241.415 137.585,245 142,245L142,244.999L149,244.999L149,245L149,245C149.552,245 150,245.448 150,246C150,246.552 149.552,247 149,247L148.969,246.998L142,246.998L142,247ZM167,245L167,244.999L173,244.999L173,246.998L167.031,246.998L167,247C166.448,247 166,246.552 166,246C166,245.448 166.448,245 167,245L167,245Z" style="fill:white;"/>
            <path id="椭圆-12-拷贝-3" serif:id="椭圆 12 拷贝 3" d="M161.182,228.59L161.179,228.588C163.233,224.112 167.756,221 173,221L173,223C171.98,223.013 170.973,223.138 169.99,223.418C166.897,224.297 164.377,226.518 163.006,229.406L162.99,229.441L162.977,229.465L162.972,229.475L162.969,229.483L162.967,229.482C162.712,229.948 162.132,230.133 161.651,229.895C161.167,229.656 160.962,229.078 161.182,228.59Z" style="fill:white;"/>
        </g>
    </g>
</svg>
