<?xml version="1.0" encoding="UTF-8" standalone="no"?>
<!DOCTYPE svg PUBLIC "-//W3C//DTD SVG 1.1//EN" "http://www.w3.org/Graphics/SVG/1.1/DTD/svg11.dtd">
<svg width="100%" height="100%" viewBox="0 0 225 180" version="1.1" xmlns="http://www.w3.org/2000/svg" xmlns:xlink="http://www.w3.org/1999/xlink" xml:space="preserve" xmlns:serif="http://www.serif.com/" style="fill-rule:evenodd;clip-rule:evenodd;stroke-linejoin:round;stroke-miterlimit:2;">
    <g transform="matrix(4.16667,0,0,4.16667,-1925,-879.167)">
        <g id="大雨">
            <path id="形状-3" serif:id="形状 3" d="M486.972,246.998C486.972,246.998 483.228,248.988 482.452,250.279C480.832,252.973 483.941,255.37 486.068,253.091C486.995,252.097 486.972,246.998 486.972,246.998ZM495.899,240.999C495.899,240.999 492.437,243.001 491.574,244.213C489.492,247.141 493.869,249.392 495.358,246.893C496.014,245.792 495.899,240.999 495.899,240.999ZM485.899,237.998C485.899,237.998 482.437,240.001 481.574,241.213C479.492,244.141 483.869,246.391 485.358,243.893C486.014,242.792 485.899,237.998 485.899,237.998Z" style="fill:rgb(157,211,255);"/>
            <path id="椭圆-12-拷贝" serif:id="椭圆 12 拷贝" d="M472,247C466.481,247 462,242.519 462,237C462,231.481 466.481,227 472,227L472.008,227C472.273,218.124 479.561,211 488.5,211C495.305,211 501.154,215.129 503.675,221.017C510.537,221.369 516,227.052 516,234C516,241.175 510.175,247 503,247L503,246.998L501.031,246.998L501,247C500.448,247 500,246.552 500,246C500,245.448 500.448,245 501,245L501,244.999L503,244.999L503,245C509.071,245 514,240.071 514,234C514,227.929 509.071,223 503,223C502.763,223 502.527,223.008 502.293,223.023C500.406,217.208 494.941,213 488.5,213C480.497,213 474,219.497 474,227.5C474,228.103 474.037,228.698 474.109,229.282C473.437,229.098 472.73,229 472,229C467.585,229 464,232.585 464,237C464,241.415 467.585,245 472,245L472,244.999L476,244.999L476,245L476,245C476.552,245 477,245.448 477,246C477,246.552 476.552,247 476,247L475.969,246.998L472,246.998L472,247Z" style="fill:white;"/>
            <path id="椭圆-12-拷贝-3" serif:id="椭圆 12 拷贝 3" d="M491.182,228.59L491.179,228.588C493.233,224.112 497.756,221 503,221L503,223C501.98,223.013 500.973,223.138 499.99,223.418C496.898,224.296 494.379,226.516 493.007,229.403L492.99,229.441L492.976,229.468L492.972,229.475L492.969,229.483L492.967,229.483C492.712,229.948 492.132,230.133 491.651,229.895C491.167,229.657 490.962,229.078 491.182,228.59Z" style="fill:white;"/>
        </g>
    </g>
</svg>
