<?xml version="1.0" encoding="UTF-8" standalone="no"?>
<!DOCTYPE svg PUBLIC "-//W3C//DTD SVG 1.1//EN" "http://www.w3.org/Graphics/SVG/1.1/DTD/svg11.dtd">
<svg width="100%" height="100%" viewBox="0 0 225 225" version="1.1" xmlns="http://www.w3.org/2000/svg" xmlns:xlink="http://www.w3.org/1999/xlink" xml:space="preserve" xmlns:serif="http://www.serif.com/" style="fill-rule:evenodd;clip-rule:evenodd;stroke-linejoin:round;stroke-miterlimit:2;">
    <g transform="matrix(4.16667,0,0,4.16667,-545.833,-245.833)">
        <g id="晴天">
            <path id="椭圆-61" serif:id="椭圆 61" d="M159,105L157,105L157,113L159,113L159,105ZM140.674,104.708L144.678,100.734C145.069,100.344 145.069,99.711 144.678,99.32C144.288,98.93 143.655,98.93 143.264,99.32L139.26,103.293C138.869,103.684 138.869,104.317 139.26,104.708C139.65,105.098 140.283,105.098 140.674,104.708ZM175.326,104.708L171.322,100.734C170.931,100.344 170.931,99.711 171.322,99.32C171.712,98.93 172.345,98.93 172.736,99.32L176.74,103.293C177.131,103.684 177.131,104.317 176.74,104.708C176.35,105.098 175.716,105.098 175.326,104.708ZM158,71C166.279,71 173,77.721 173,86C173,94.279 166.279,101 158,101C149.721,101 143,94.279 143,86C143,77.721 149.721,71 158,71ZM158,73C165.175,73 171,78.825 171,86C171,93.175 165.175,99 158,99C150.825,99 145,93.175 145,86C145,78.825 150.825,73 158,73ZM185,85L177,85L177,87L185,87L185,85ZM139,85L131,85L131,87L139,87L139,85ZM140.674,67.289L144.678,71.263C145.069,71.653 145.069,72.286 144.678,72.677C144.288,73.067 143.655,73.067 143.264,72.677L139.26,68.704C138.869,68.313 138.869,67.68 139.26,67.289C139.65,66.899 140.283,66.899 140.674,67.289ZM175.326,67.289L171.322,71.263C170.931,71.653 170.931,72.286 171.322,72.677C171.712,73.067 172.345,73.067 172.736,72.677L176.74,68.704C177.131,68.313 177.131,67.68 176.74,67.289C176.35,66.899 175.716,66.899 175.326,67.289ZM159,60C159,59.448 158.552,59 158,59C157.448,59 157,59.448 157,60L157,66C157,66.552 157.448,67 158,67C158.552,67 159,66.552 159,66L159,60Z" style="fill:rgb(239,209,11);"/>
        </g>
    </g>
</svg>
